<svg width="1035" height="249" viewBox="0 0 1035 249" fill="none" xmlns="http://www.w3.org/2000/svg">
<mask id="path-1-outside-1_3_203" maskUnits="userSpaceOnUse" x="3" y="101" width="433" height="148" fill="black">
<rect fill="white" x="3" y="101" width="433" height="148"/>
<path d="M38.688 219.716C34.112 219.716 29.432 219.352 24.648 218.624C19.968 218 15.704 216.804 11.856 215.036C9.256 213.996 7.384 212.592 6.24 210.824C5.2 209.056 4.68 207.184 4.68 205.208C4.784 203.232 5.356 201.464 6.396 199.904C7.54 198.24 8.996 197.096 10.764 196.472C12.636 195.744 14.716 195.796 17.004 196.628C21.372 198.188 25.272 199.332 28.704 200.06C32.24 200.684 35.62 200.996 38.844 200.996C42.692 200.996 45.448 200.476 47.112 199.436C48.776 198.292 49.608 196.836 49.608 195.068C49.608 193.508 49.036 192.312 47.892 191.48C46.852 190.648 45.344 190.076 43.368 189.764L26.052 186.956C19.604 185.812 14.612 183.472 11.076 179.936C7.54 176.296 5.772 171.564 5.772 165.74C5.772 160.332 7.28 155.704 10.296 151.856C13.416 147.904 17.628 144.888 22.932 142.808C28.34 140.624 34.528 139.532 41.496 139.532C46.176 139.532 50.44 139.896 54.288 140.624C58.136 141.248 61.88 142.444 65.52 144.212C67.808 145.148 69.42 146.5 70.356 148.268C71.292 150.036 71.656 151.908 71.448 153.884C71.24 155.756 70.564 157.524 69.42 159.188C68.38 160.748 66.924 161.84 65.052 162.464C63.18 162.984 60.996 162.828 58.5 161.996C55.068 160.644 52 159.656 49.296 159.032C46.696 158.408 44.252 158.096 41.964 158.096C37.7 158.096 34.684 158.668 32.916 159.812C31.148 160.956 30.264 162.412 30.264 164.18C30.264 165.532 30.732 166.676 31.668 167.612C32.604 168.444 34.06 169.016 36.036 169.328L53.352 172.292C60.008 173.332 65.104 175.62 68.64 179.156C72.28 182.588 74.1 187.268 74.1 193.196C74.1 201.62 70.876 208.172 64.428 212.852C57.98 217.428 49.4 219.716 38.688 219.716ZM117.363 219.404C113.827 219.404 110.759 218.572 108.159 216.908C105.559 215.14 103.479 212.436 101.919 208.796L80.7032 157.472C79.3512 154.248 78.8832 151.336 79.2992 148.736C79.7152 146.032 80.9632 143.9 83.0432 142.34C85.2272 140.676 88.1912 139.844 91.9352 139.844C95.1592 139.844 97.8112 140.624 99.8912 142.184C101.971 143.64 103.843 146.552 105.507 150.92L120.483 190.232H117.207L132.963 147.956C134.003 145.148 135.407 143.12 137.175 141.872C139.047 140.52 141.387 139.844 144.195 139.844C147.211 139.844 149.603 140.52 151.371 141.872C153.139 143.224 154.543 145.252 155.583 147.956L171.339 190.232H168.531L183.663 149.984C185.119 146.032 186.991 143.38 189.279 142.028C191.567 140.572 194.011 139.844 196.611 139.844C200.147 139.844 202.851 140.676 204.723 142.34C206.595 144.004 207.635 146.188 207.843 148.892C208.155 151.596 207.635 154.508 206.283 157.628L185.223 208.64C183.767 212.28 181.739 214.984 179.139 216.752C176.539 218.52 173.471 219.404 169.935 219.404C166.295 219.404 163.175 218.52 160.575 216.752C158.079 214.984 156.051 212.28 154.491 208.64L137.331 165.74H148.719L132.495 208.328C131.039 212.072 129.063 214.88 126.567 216.752C124.071 218.52 121.003 219.404 117.363 219.404ZM233.141 219.404C228.773 219.404 225.393 218.104 223.001 215.504C220.609 212.904 219.413 209.16 219.413 204.272V154.976C219.413 150.088 220.609 146.344 223.001 143.744C225.393 141.144 228.773 139.844 233.141 139.844C237.613 139.844 241.045 141.144 243.437 143.744C245.933 146.344 247.181 150.088 247.181 154.976V204.272C247.181 209.16 245.985 212.904 243.593 215.504C241.201 218.104 237.717 219.404 233.141 219.404ZM233.141 128.768C228.253 128.768 224.457 127.624 221.753 125.336C219.153 123.048 217.853 119.72 217.853 115.352C217.853 111.088 219.153 107.812 221.753 105.524C224.457 103.236 228.253 102.092 233.141 102.092C238.237 102.092 242.085 103.236 244.685 105.524C247.285 107.812 248.585 111.088 248.585 115.352C248.585 119.72 247.285 123.048 244.685 125.336C242.085 127.624 238.237 128.768 233.141 128.768ZM277.016 247.484C272.648 247.484 269.268 246.288 266.876 243.896C264.484 241.504 263.288 238.02 263.288 233.444V153.728C263.288 149.256 264.432 145.824 266.72 143.432C269.112 141.04 272.492 139.844 276.86 139.844C281.332 139.844 284.712 141.04 287 143.432C289.392 145.824 290.588 149.256 290.588 153.728V162.776L288.872 155.132C290.328 150.452 293.344 146.708 297.92 143.9C302.6 140.988 307.904 139.532 313.832 139.532C320.488 139.532 326.312 141.144 331.304 144.368C336.4 147.592 340.352 152.168 343.16 158.096C345.968 164.024 347.372 171.2 347.372 179.624C347.372 187.84 345.968 194.964 343.16 200.996C340.352 207.028 336.4 211.656 331.304 214.88C326.312 218.104 320.488 219.716 313.832 219.716C308.112 219.716 302.964 218.364 298.388 215.66C293.812 212.956 290.744 209.42 289.184 205.052H291.056V233.444C291.056 238.02 289.808 241.504 287.312 243.896C284.92 246.288 281.488 247.484 277.016 247.484ZM305.096 199.28C307.904 199.28 310.348 198.604 312.428 197.252C314.612 195.796 316.328 193.664 317.576 190.856C318.824 187.944 319.448 184.2 319.448 179.624C319.448 172.656 318.096 167.664 315.392 164.648C312.688 161.528 309.256 159.968 305.096 159.968C302.288 159.968 299.792 160.644 297.608 161.996C295.424 163.348 293.708 165.48 292.46 168.392C291.212 171.2 290.588 174.944 290.588 179.624C290.588 186.488 291.94 191.48 294.644 194.6C297.348 197.72 300.832 199.28 305.096 199.28ZM401.834 219.716C392.474 219.716 384.362 218.104 377.498 214.88C370.738 211.552 365.538 206.872 361.898 200.84C358.258 194.808 356.438 187.684 356.438 179.468C356.438 171.564 358.154 164.648 361.586 158.72C365.122 152.688 369.906 148.008 375.938 144.68C382.074 141.248 389.042 139.532 396.842 139.532C402.562 139.532 407.762 140.468 412.442 142.34C417.122 144.108 421.126 146.76 424.454 150.296C427.782 153.728 430.278 157.888 431.942 162.776C433.71 167.664 434.594 173.124 434.594 179.156C434.594 181.236 434.022 182.796 432.878 183.836C431.734 184.772 429.914 185.24 427.418 185.24H379.682V172.136H414.314L411.818 174.164C411.818 170.316 411.298 167.196 410.258 164.804C409.218 162.412 407.658 160.592 405.578 159.344C403.602 158.096 401.106 157.472 398.09 157.472C394.866 157.472 392.058 158.252 389.666 159.812C387.378 161.268 385.61 163.452 384.362 166.364C383.114 169.276 382.49 172.916 382.49 177.284V178.688C382.49 186.072 384.102 191.376 387.326 194.6C390.654 197.72 395.75 199.28 402.614 199.28C404.902 199.28 407.502 199.02 410.414 198.5C413.43 197.876 416.29 197.044 418.994 196.004C421.698 194.964 424.038 194.808 426.014 195.536C427.99 196.16 429.498 197.304 430.538 198.968C431.682 200.528 432.306 202.348 432.41 204.428C432.514 206.404 432.046 208.38 431.006 210.356C429.966 212.228 428.25 213.684 425.858 214.724C422.218 216.388 418.318 217.636 414.158 218.468C410.102 219.3 405.994 219.716 401.834 219.716Z"/>
</mask>
<path d="M38.688 219.716C34.112 219.716 29.432 219.352 24.648 218.624C19.968 218 15.704 216.804 11.856 215.036C9.256 213.996 7.384 212.592 6.24 210.824C5.2 209.056 4.68 207.184 4.68 205.208C4.784 203.232 5.356 201.464 6.396 199.904C7.54 198.24 8.996 197.096 10.764 196.472C12.636 195.744 14.716 195.796 17.004 196.628C21.372 198.188 25.272 199.332 28.704 200.06C32.24 200.684 35.62 200.996 38.844 200.996C42.692 200.996 45.448 200.476 47.112 199.436C48.776 198.292 49.608 196.836 49.608 195.068C49.608 193.508 49.036 192.312 47.892 191.48C46.852 190.648 45.344 190.076 43.368 189.764L26.052 186.956C19.604 185.812 14.612 183.472 11.076 179.936C7.54 176.296 5.772 171.564 5.772 165.74C5.772 160.332 7.28 155.704 10.296 151.856C13.416 147.904 17.628 144.888 22.932 142.808C28.34 140.624 34.528 139.532 41.496 139.532C46.176 139.532 50.44 139.896 54.288 140.624C58.136 141.248 61.88 142.444 65.52 144.212C67.808 145.148 69.42 146.5 70.356 148.268C71.292 150.036 71.656 151.908 71.448 153.884C71.24 155.756 70.564 157.524 69.42 159.188C68.38 160.748 66.924 161.84 65.052 162.464C63.18 162.984 60.996 162.828 58.5 161.996C55.068 160.644 52 159.656 49.296 159.032C46.696 158.408 44.252 158.096 41.964 158.096C37.7 158.096 34.684 158.668 32.916 159.812C31.148 160.956 30.264 162.412 30.264 164.18C30.264 165.532 30.732 166.676 31.668 167.612C32.604 168.444 34.06 169.016 36.036 169.328L53.352 172.292C60.008 173.332 65.104 175.62 68.64 179.156C72.28 182.588 74.1 187.268 74.1 193.196C74.1 201.62 70.876 208.172 64.428 212.852C57.98 217.428 49.4 219.716 38.688 219.716ZM117.363 219.404C113.827 219.404 110.759 218.572 108.159 216.908C105.559 215.14 103.479 212.436 101.919 208.796L80.7032 157.472C79.3512 154.248 78.8832 151.336 79.2992 148.736C79.7152 146.032 80.9632 143.9 83.0432 142.34C85.2272 140.676 88.1912 139.844 91.9352 139.844C95.1592 139.844 97.8112 140.624 99.8912 142.184C101.971 143.64 103.843 146.552 105.507 150.92L120.483 190.232H117.207L132.963 147.956C134.003 145.148 135.407 143.12 137.175 141.872C139.047 140.52 141.387 139.844 144.195 139.844C147.211 139.844 149.603 140.52 151.371 141.872C153.139 143.224 154.543 145.252 155.583 147.956L171.339 190.232H168.531L183.663 149.984C185.119 146.032 186.991 143.38 189.279 142.028C191.567 140.572 194.011 139.844 196.611 139.844C200.147 139.844 202.851 140.676 204.723 142.34C206.595 144.004 207.635 146.188 207.843 148.892C208.155 151.596 207.635 154.508 206.283 157.628L185.223 208.64C183.767 212.28 181.739 214.984 179.139 216.752C176.539 218.52 173.471 219.404 169.935 219.404C166.295 219.404 163.175 218.52 160.575 216.752C158.079 214.984 156.051 212.28 154.491 208.64L137.331 165.74H148.719L132.495 208.328C131.039 212.072 129.063 214.88 126.567 216.752C124.071 218.52 121.003 219.404 117.363 219.404ZM233.141 219.404C228.773 219.404 225.393 218.104 223.001 215.504C220.609 212.904 219.413 209.16 219.413 204.272V154.976C219.413 150.088 220.609 146.344 223.001 143.744C225.393 141.144 228.773 139.844 233.141 139.844C237.613 139.844 241.045 141.144 243.437 143.744C245.933 146.344 247.181 150.088 247.181 154.976V204.272C247.181 209.16 245.985 212.904 243.593 215.504C241.201 218.104 237.717 219.404 233.141 219.404ZM233.141 128.768C228.253 128.768 224.457 127.624 221.753 125.336C219.153 123.048 217.853 119.72 217.853 115.352C217.853 111.088 219.153 107.812 221.753 105.524C224.457 103.236 228.253 102.092 233.141 102.092C238.237 102.092 242.085 103.236 244.685 105.524C247.285 107.812 248.585 111.088 248.585 115.352C248.585 119.72 247.285 123.048 244.685 125.336C242.085 127.624 238.237 128.768 233.141 128.768ZM277.016 247.484C272.648 247.484 269.268 246.288 266.876 243.896C264.484 241.504 263.288 238.02 263.288 233.444V153.728C263.288 149.256 264.432 145.824 266.72 143.432C269.112 141.04 272.492 139.844 276.86 139.844C281.332 139.844 284.712 141.04 287 143.432C289.392 145.824 290.588 149.256 290.588 153.728V162.776L288.872 155.132C290.328 150.452 293.344 146.708 297.92 143.9C302.6 140.988 307.904 139.532 313.832 139.532C320.488 139.532 326.312 141.144 331.304 144.368C336.4 147.592 340.352 152.168 343.16 158.096C345.968 164.024 347.372 171.2 347.372 179.624C347.372 187.84 345.968 194.964 343.16 200.996C340.352 207.028 336.4 211.656 331.304 214.88C326.312 218.104 320.488 219.716 313.832 219.716C308.112 219.716 302.964 218.364 298.388 215.66C293.812 212.956 290.744 209.42 289.184 205.052H291.056V233.444C291.056 238.02 289.808 241.504 287.312 243.896C284.92 246.288 281.488 247.484 277.016 247.484ZM305.096 199.28C307.904 199.28 310.348 198.604 312.428 197.252C314.612 195.796 316.328 193.664 317.576 190.856C318.824 187.944 319.448 184.2 319.448 179.624C319.448 172.656 318.096 167.664 315.392 164.648C312.688 161.528 309.256 159.968 305.096 159.968C302.288 159.968 299.792 160.644 297.608 161.996C295.424 163.348 293.708 165.48 292.46 168.392C291.212 171.2 290.588 174.944 290.588 179.624C290.588 186.488 291.94 191.48 294.644 194.6C297.348 197.72 300.832 199.28 305.096 199.28ZM401.834 219.716C392.474 219.716 384.362 218.104 377.498 214.88C370.738 211.552 365.538 206.872 361.898 200.84C358.258 194.808 356.438 187.684 356.438 179.468C356.438 171.564 358.154 164.648 361.586 158.72C365.122 152.688 369.906 148.008 375.938 144.68C382.074 141.248 389.042 139.532 396.842 139.532C402.562 139.532 407.762 140.468 412.442 142.34C417.122 144.108 421.126 146.76 424.454 150.296C427.782 153.728 430.278 157.888 431.942 162.776C433.71 167.664 434.594 173.124 434.594 179.156C434.594 181.236 434.022 182.796 432.878 183.836C431.734 184.772 429.914 185.24 427.418 185.24H379.682V172.136H414.314L411.818 174.164C411.818 170.316 411.298 167.196 410.258 164.804C409.218 162.412 407.658 160.592 405.578 159.344C403.602 158.096 401.106 157.472 398.09 157.472C394.866 157.472 392.058 158.252 389.666 159.812C387.378 161.268 385.61 163.452 384.362 166.364C383.114 169.276 382.49 172.916 382.49 177.284V178.688C382.49 186.072 384.102 191.376 387.326 194.6C390.654 197.72 395.75 199.28 402.614 199.28C404.902 199.28 407.502 199.02 410.414 198.5C413.43 197.876 416.29 197.044 418.994 196.004C421.698 194.964 424.038 194.808 426.014 195.536C427.99 196.16 429.498 197.304 430.538 198.968C431.682 200.528 432.306 202.348 432.41 204.428C432.514 206.404 432.046 208.38 431.006 210.356C429.966 212.228 428.25 213.684 425.858 214.724C422.218 216.388 418.318 217.636 414.158 218.468C410.102 219.3 405.994 219.716 401.834 219.716Z" fill="#FB5340"/>
<path d="M24.648 218.624L24.7984 217.635L24.7893 217.634L24.7802 217.633L24.648 218.624ZM11.856 215.036L12.2735 214.127L12.2507 214.117L12.2274 214.108L11.856 215.036ZM6.24 210.824L5.37807 211.331L5.38886 211.349L5.40043 211.367L6.24 210.824ZM4.68 205.208L3.68138 205.155L3.68 205.182V205.208H4.68ZM6.396 199.904L5.57196 199.337L5.56791 199.343L5.56395 199.349L6.396 199.904ZM10.764 196.472L11.0968 197.415L11.1117 197.41L11.1264 197.404L10.764 196.472ZM17.004 196.628L16.6623 197.568L16.6677 197.57L17.004 196.628ZM28.704 200.06L28.4965 201.038L28.5133 201.042L28.5302 201.045L28.704 200.06ZM47.112 199.436L47.642 200.284L47.6605 200.272L47.6785 200.26L47.112 199.436ZM47.892 191.48L47.2673 192.261L47.2852 192.275L47.3038 192.289L47.892 191.48ZM43.368 189.764L43.2079 190.751L43.212 190.752L43.368 189.764ZM26.052 186.956L25.8773 187.941L25.8846 187.942L25.8919 187.943L26.052 186.956ZM11.076 179.936L10.3587 180.633L10.3638 180.638L10.3689 180.643L11.076 179.936ZM10.296 151.856L9.51111 151.236L9.50894 151.239L10.296 151.856ZM22.932 142.808L23.2971 143.739L23.3065 143.735L22.932 142.808ZM54.288 140.624L54.1021 141.607L54.115 141.609L54.1279 141.611L54.288 140.624ZM65.52 144.212L65.0831 145.112L65.1118 145.125L65.1414 145.138L65.52 144.212ZM70.356 148.268L71.2398 147.8V147.8L70.356 148.268ZM71.448 153.884L72.4419 153.994L72.4425 153.989L71.448 153.884ZM69.42 159.188L68.596 158.621L68.5919 158.627L68.588 158.633L69.42 159.188ZM65.052 162.464L65.3196 163.428L65.3441 163.421L65.3682 163.413L65.052 162.464ZM58.5 161.996L58.1335 162.926L58.1584 162.936L58.1838 162.945L58.5 161.996ZM49.296 159.032L49.0626 160.004L49.0711 160.006L49.296 159.032ZM32.916 159.812L32.3727 158.972V158.972L32.916 159.812ZM31.668 167.612L30.9609 168.319L30.9817 168.34L31.0036 168.359L31.668 167.612ZM36.036 169.328L36.2047 168.342L36.192 168.34L36.036 169.328ZM53.352 172.292L53.1833 173.278L53.1904 173.279L53.1976 173.28L53.352 172.292ZM68.64 179.156L67.9329 179.863L67.9433 179.874L67.954 179.884L68.64 179.156ZM64.428 212.852L65.0068 213.668L65.0154 213.661L64.428 212.852ZM38.688 219.716V218.716C34.1651 218.716 29.5355 218.356 24.7984 217.635L24.648 218.624L24.4976 219.613C29.3285 220.348 34.0589 220.716 38.688 220.716V219.716ZM24.648 218.624L24.7802 217.633C20.1877 217.02 16.0213 215.849 12.2735 214.127L11.856 215.036L11.4385 215.945C15.3867 217.759 19.7483 218.98 24.5158 219.615L24.648 218.624ZM11.856 215.036L12.2274 214.108C9.75698 213.119 8.07936 211.826 7.07957 210.281L6.24 210.824L5.40043 211.367C6.68864 213.358 8.75502 214.873 11.4846 215.964L11.856 215.036ZM6.24 210.824L7.10193 210.317C6.14874 208.697 5.68 206.999 5.68 205.208H4.68H3.68C3.68 207.369 4.25126 209.415 5.37807 211.331L6.24 210.824ZM4.68 205.208L5.67862 205.261C5.77373 203.454 6.29324 201.861 7.22805 200.459L6.396 199.904L5.56395 199.349C4.41876 201.067 3.79427 203.01 3.68138 205.155L4.68 205.208ZM6.396 199.904L7.22004 200.471C8.25399 198.967 9.54391 197.963 11.0968 197.415L10.764 196.472L10.4312 195.529C8.44809 196.229 6.82601 197.513 5.57196 199.337L6.396 199.904ZM10.764 196.472L11.1264 197.404C12.7269 196.782 14.5516 196.8 16.6623 197.568L17.004 196.628L17.3457 195.688C14.8804 194.792 12.5451 194.706 10.4016 195.54L10.764 196.472ZM17.004 196.628L16.6677 197.57C21.0652 199.14 25.0095 200.299 28.4965 201.038L28.704 200.06L28.9115 199.082C25.5345 198.365 21.6788 197.236 17.3403 195.686L17.004 196.628ZM28.704 200.06L28.5302 201.045C32.1172 201.678 35.5556 201.996 38.844 201.996V200.996V199.996C35.6844 199.996 32.3628 199.69 28.8778 199.075L28.704 200.06ZM38.844 200.996V201.996C42.7301 201.996 45.7277 201.48 47.642 200.284L47.112 199.436L46.582 198.588C45.1683 199.472 42.654 199.996 38.844 199.996V200.996ZM47.112 199.436L47.6785 200.26C49.5691 198.96 50.608 197.216 50.608 195.068H49.608H48.608C48.608 196.456 47.9829 197.624 46.5455 198.612L47.112 199.436ZM49.608 195.068H50.608C50.608 193.226 49.9123 191.713 48.4802 190.671L47.892 191.48L47.3038 192.289C48.1597 192.911 48.608 193.79 48.608 195.068H49.608ZM47.892 191.48L48.5167 190.699C47.2896 189.717 45.5919 189.103 43.524 188.776L43.368 189.764L43.212 190.752C45.0961 191.049 46.4144 191.579 47.2673 192.261L47.892 191.48ZM43.368 189.764L43.5281 188.777L26.2121 185.969L26.052 186.956L25.8919 187.943L43.2079 190.751L43.368 189.764ZM26.052 186.956L26.2267 185.971C19.9185 184.852 15.1354 182.581 11.7831 179.229L11.076 179.936L10.3689 180.643C14.0886 184.363 19.2895 186.772 25.8773 187.941L26.052 186.956ZM11.076 179.936L11.7933 179.239C8.46558 175.814 6.772 171.345 6.772 165.74H5.772H4.772C4.772 171.783 6.61442 176.778 10.3587 180.633L11.076 179.936ZM5.772 165.74H6.772C6.772 160.531 8.21978 156.126 11.0831 152.473L10.296 151.856L9.50894 151.239C6.34022 155.282 4.772 160.133 4.772 165.74H5.772ZM10.296 151.856L11.0809 152.476C14.0772 148.68 18.136 145.763 23.2971 143.739L22.932 142.808L22.5669 141.877C17.12 144.013 12.7548 147.128 9.51112 151.236L10.296 151.856ZM22.932 142.808L23.3065 143.735C28.5747 141.608 34.6319 140.532 41.496 140.532V139.532V138.532C34.4241 138.532 28.1053 139.64 22.5575 141.881L22.932 142.808ZM41.496 139.532V140.532C46.1253 140.532 50.3259 140.892 54.1021 141.607L54.288 140.624L54.4739 139.641C50.5541 138.9 46.2267 138.532 41.496 138.532V139.532ZM54.288 140.624L54.1279 141.611C57.8763 142.219 61.5273 143.384 65.0831 145.112L65.52 144.212L65.9569 143.312C62.2327 141.504 58.3957 140.277 54.4481 139.637L54.288 140.624ZM65.52 144.212L65.1414 145.138C67.2654 146.006 68.6698 147.22 69.4722 148.736L70.356 148.268L71.2398 147.8C70.1702 145.78 68.3506 144.29 65.8986 143.286L65.52 144.212ZM70.356 148.268L69.4722 148.736C70.3159 150.33 70.6405 152.002 70.4535 153.779L71.448 153.884L72.4425 153.989C72.6715 151.814 72.2681 149.742 71.2398 147.8L70.356 148.268ZM71.448 153.884L70.4541 153.774C70.2656 155.47 69.6536 157.083 68.596 158.621L69.42 159.188L70.244 159.755C71.4744 157.965 72.2144 156.042 72.4419 153.994L71.448 153.884ZM69.42 159.188L68.588 158.633C67.6781 159.998 66.4087 160.958 64.7358 161.515L65.052 162.464L65.3682 163.413C67.4393 162.722 69.0819 161.498 70.2521 159.743L69.42 159.188ZM65.052 162.464L64.7844 161.5C63.1611 161.951 61.1887 161.838 58.8162 161.047L58.5 161.996L58.1838 162.945C60.8033 163.818 63.1989 164.017 65.3196 163.428L65.052 162.464ZM58.5 161.996L58.8665 161.066C55.4025 159.701 52.2858 158.696 49.5209 158.058L49.296 159.032L49.0711 160.006C51.7142 160.616 54.7335 161.587 58.1335 162.926L58.5 161.996ZM49.296 159.032L49.5294 158.06C46.8654 157.42 44.3425 157.096 41.964 157.096V158.096V159.096C44.1615 159.096 46.5266 159.396 49.0626 160.004L49.296 159.032ZM41.964 158.096V157.096C37.669 157.096 34.3992 157.661 32.3727 158.972L32.916 159.812L33.4593 160.652C34.9688 159.675 37.731 159.096 41.964 159.096V158.096ZM32.916 159.812L32.3727 158.972C30.383 160.26 29.264 162.004 29.264 164.18H30.264H31.264C31.264 162.82 31.913 161.652 33.4593 160.652L32.916 159.812ZM30.264 164.18H29.264C29.264 165.791 29.8329 167.191 30.9609 168.319L31.668 167.612L32.3751 166.905C31.6311 166.161 31.264 165.273 31.264 164.18H30.264ZM31.668 167.612L31.0036 168.359C32.1444 169.373 33.8179 169.99 35.88 170.316L36.036 169.328L36.192 168.34C34.3021 168.042 33.0636 167.515 32.3324 166.865L31.668 167.612ZM36.036 169.328L35.8673 170.314L53.1833 173.278L53.352 172.292L53.5207 171.306L36.2047 168.342L36.036 169.328ZM53.352 172.292L53.1976 173.28C59.716 174.299 64.591 176.521 67.9329 179.863L68.64 179.156L69.3471 178.449C65.617 174.719 60.3 172.365 53.5064 171.304L53.352 172.292ZM68.64 179.156L67.954 179.884C71.3567 183.092 73.1 187.488 73.1 193.196H74.1H75.1C75.1 187.048 73.2033 182.084 69.326 178.428L68.64 179.156ZM74.1 193.196H73.1C73.1 201.321 70.0125 207.563 63.8406 212.043L64.428 212.852L65.0154 213.661C71.7396 208.781 75.1 201.919 75.1 193.196H74.1ZM64.428 212.852L63.8493 212.036C57.621 216.457 49.2648 218.716 38.688 218.716V219.716V220.716C49.5352 220.716 58.339 218.399 65.0068 213.668L64.428 212.852ZM108.159 216.908L107.597 217.735L107.608 217.743L107.62 217.75L108.159 216.908ZM101.919 208.796L100.995 209.178L101 209.19L101.919 208.796ZM80.7032 157.472L81.6273 157.09L81.6254 157.085L80.7032 157.472ZM79.2992 148.736L80.2866 148.894L80.2876 148.888L79.2992 148.736ZM83.0432 142.34L83.6432 143.14L83.6492 143.135L83.0432 142.34ZM99.8912 142.184L99.2912 142.984L99.3043 142.994L99.3177 143.003L99.8912 142.184ZM105.507 150.92L104.573 151.276V151.276L105.507 150.92ZM120.483 190.232V191.232H121.934L121.418 189.876L120.483 190.232ZM117.207 190.232L116.27 189.883L115.767 191.232H117.207V190.232ZM132.963 147.956L133.9 148.305L133.901 148.303L132.963 147.956ZM137.175 141.872L137.752 142.689L137.761 142.683L137.175 141.872ZM155.583 147.956L156.52 147.607L156.517 147.597L155.583 147.956ZM171.339 190.232V191.232H172.779L172.276 189.883L171.339 190.232ZM168.531 190.232L167.595 189.88L167.087 191.232H168.531V190.232ZM183.663 149.984L184.599 150.336L184.602 150.33L183.663 149.984ZM189.279 142.028L189.788 142.889L189.802 142.881L189.816 142.872L189.279 142.028ZM204.723 142.34L204.059 143.087V143.087L204.723 142.34ZM207.843 148.892L206.846 148.969L206.848 148.988L206.85 149.007L207.843 148.892ZM206.283 157.628L205.366 157.23L205.362 157.238L205.359 157.246L206.283 157.628ZM185.223 208.64L184.299 208.258L184.295 208.269L185.223 208.64ZM179.139 216.752L179.702 217.579V217.579L179.139 216.752ZM160.575 216.752L159.997 217.568L160.005 217.574L160.013 217.579L160.575 216.752ZM154.491 208.64L153.563 209.011L153.567 209.023L153.572 209.034L154.491 208.64ZM137.331 165.74V164.74H135.854L136.403 166.111L137.331 165.74ZM148.719 165.74L149.654 166.096L150.17 164.74H148.719V165.74ZM132.495 208.328L133.427 208.69L133.43 208.684L132.495 208.328ZM126.567 216.752L127.145 217.568L127.156 217.56L127.167 217.552L126.567 216.752ZM117.363 219.404V218.404C113.99 218.404 111.115 217.612 108.698 216.066L108.159 216.908L107.62 217.75C110.403 219.532 113.665 220.404 117.363 220.404V219.404ZM108.159 216.908L108.721 216.081C106.316 214.445 104.343 211.912 102.838 208.402L101.919 208.796L101 209.19C102.616 212.96 104.803 215.835 107.597 217.735L108.159 216.908ZM101.919 208.796L102.843 208.414L81.6273 157.09L80.7032 157.472L79.779 157.854L100.995 209.178L101.919 208.796ZM80.7032 157.472L81.6254 157.085C80.3225 153.978 79.9083 151.259 80.2866 148.894L79.2992 148.736L78.3117 148.578C77.8581 151.413 78.3799 154.518 79.781 157.859L80.7032 157.472ZM79.2992 148.736L80.2876 148.888C80.6661 146.428 81.7842 144.534 83.6432 143.14L83.0432 142.34L82.4432 141.54C80.1422 143.266 78.7643 145.636 78.3108 148.584L79.2992 148.736ZM83.0432 142.34L83.6492 143.135C85.6055 141.645 88.3316 140.844 91.9352 140.844V139.844V138.844C88.0508 138.844 84.8489 139.707 82.4371 141.545L83.0432 142.34ZM91.9352 139.844V140.844C94.9957 140.844 97.4223 141.582 99.2912 142.984L99.8912 142.184L100.491 141.384C98.2001 139.666 95.3227 138.844 91.9352 138.844V139.844ZM99.8912 142.184L99.3177 143.003C101.146 144.283 102.928 146.96 104.573 151.276L105.507 150.92L106.442 150.564C104.758 146.144 102.797 142.997 100.465 141.365L99.8912 142.184ZM105.507 150.92L104.573 151.276L119.549 190.588L120.483 190.232L121.418 189.876L106.442 150.564L105.507 150.92ZM120.483 190.232V189.232H117.207V190.232V191.232H120.483V190.232ZM117.207 190.232L118.144 190.581L133.9 148.305L132.963 147.956L132.026 147.607L116.27 189.883L117.207 190.232ZM132.963 147.956L133.901 148.303C134.897 145.614 136.201 143.784 137.752 142.689L137.175 141.872L136.599 141.055C134.613 142.456 133.109 144.682 132.025 147.609L132.963 147.956ZM137.175 141.872L137.761 142.683C139.428 141.478 141.551 140.844 144.195 140.844V139.844V138.844C141.223 138.844 138.666 139.562 136.59 141.061L137.175 141.872ZM144.195 139.844V140.844C147.069 140.844 149.223 141.488 150.764 142.666L151.371 141.872L151.979 141.078C149.984 139.552 147.354 138.844 144.195 138.844V139.844ZM151.371 141.872L150.764 142.666C152.347 143.877 153.657 145.732 154.65 148.315L155.583 147.956L156.517 147.597C155.43 144.772 153.931 142.571 151.979 141.078L151.371 141.872ZM155.583 147.956L154.646 148.305L170.402 190.581L171.339 190.232L172.276 189.883L156.52 147.607L155.583 147.956ZM171.339 190.232V189.232H168.531V190.232V191.232H171.339V190.232ZM168.531 190.232L169.467 190.584L184.599 150.336L183.663 149.984L182.727 149.632L167.595 189.88L168.531 190.232ZM183.663 149.984L184.602 150.33C186.022 146.475 187.785 144.072 189.788 142.889L189.279 142.028L188.77 141.167C186.197 142.688 184.217 145.589 182.725 149.638L183.663 149.984ZM189.279 142.028L189.816 142.872C191.951 141.513 194.21 140.844 196.611 140.844V139.844V138.844C193.813 138.844 191.184 139.631 188.742 141.184L189.279 142.028ZM196.611 139.844V140.844C200.003 140.844 202.433 141.642 204.059 143.087L204.723 142.34L205.388 141.593C203.269 139.71 200.292 138.844 196.611 138.844V139.844ZM204.723 142.34L204.059 143.087C205.72 144.564 206.656 146.499 206.846 148.969L207.843 148.892L208.84 148.815C208.614 145.877 207.47 143.444 205.388 141.593L204.723 142.34ZM207.843 148.892L206.85 149.007C207.137 151.498 206.665 154.232 205.366 157.23L206.283 157.628L207.201 158.026C208.605 154.784 209.173 151.694 208.837 148.777L207.843 148.892ZM206.283 157.628L205.359 157.246L184.299 208.258L185.223 208.64L186.148 209.022L207.208 158.01L206.283 157.628ZM185.223 208.64L184.295 208.269C182.894 211.77 180.976 214.294 178.577 215.925L179.139 216.752L179.702 217.579C182.503 215.674 184.64 212.79 186.152 209.011L185.223 208.64ZM179.139 216.752L178.577 215.925C176.163 217.567 173.297 218.404 169.935 218.404V219.404V220.404C173.646 220.404 176.915 219.473 179.702 217.579L179.139 216.752ZM169.935 219.404V218.404C166.463 218.404 163.547 217.563 161.138 215.925L160.575 216.752L160.013 217.579C162.804 219.477 166.127 220.404 169.935 220.404V219.404ZM160.575 216.752L161.153 215.936C158.846 214.302 156.919 211.766 155.41 208.246L154.491 208.64L153.572 209.034C155.184 212.794 157.312 215.666 159.997 217.568L160.575 216.752ZM154.491 208.64L155.42 208.269L138.26 165.369L137.331 165.74L136.403 166.111L153.563 209.011L154.491 208.64ZM137.331 165.74V166.74H148.719V165.74V164.74H137.331V165.74ZM148.719 165.74L147.785 165.384L131.561 207.972L132.495 208.328L133.43 208.684L149.654 166.096L148.719 165.74ZM132.495 208.328L131.563 207.966C130.156 211.585 128.277 214.22 125.967 215.952L126.567 216.752L127.167 217.552C129.85 215.54 131.923 212.559 133.427 208.69L132.495 208.328ZM126.567 216.752L125.989 215.936C123.692 217.563 120.836 218.404 117.363 218.404V219.404V220.404C121.17 220.404 124.45 219.477 127.145 217.568L126.567 216.752ZM223.001 215.504L223.737 214.827L223.001 215.504ZM223.001 143.744L223.737 144.421V144.421L223.001 143.744ZM243.437 143.744L242.701 144.421L242.708 144.429L242.715 144.437L243.437 143.744ZM243.593 215.504L244.329 216.181V216.181L243.593 215.504ZM221.753 125.336L221.092 126.087L221.099 126.093L221.107 126.099L221.753 125.336ZM221.753 105.524L221.107 104.761L221.099 104.767L221.092 104.773L221.753 105.524ZM244.685 105.524L244.024 106.275V106.275L244.685 105.524ZM244.685 125.336L245.345 126.087V126.087L244.685 125.336ZM233.141 219.404V218.404C228.981 218.404 225.896 217.174 223.737 214.827L223.001 215.504L222.265 216.181C224.889 219.034 228.564 220.404 233.141 220.404V219.404ZM223.001 215.504L223.737 214.827C221.57 212.472 220.413 209.006 220.413 204.272H219.413H218.413C218.413 209.314 219.647 213.336 222.265 216.181L223.001 215.504ZM219.413 204.272H220.413V154.976H219.413H218.413V204.272H219.413ZM219.413 154.976H220.413C220.413 150.242 221.57 146.776 223.737 144.421L223.001 143.744L222.265 143.067C219.647 145.912 218.413 149.934 218.413 154.976H219.413ZM223.001 143.744L223.737 144.421C225.896 142.074 228.981 140.844 233.141 140.844V139.844V138.844C228.564 138.844 224.889 140.214 222.265 143.067L223.001 143.744ZM233.141 139.844V140.844C237.412 140.844 240.546 142.079 242.701 144.421L243.437 143.744L244.173 143.067C241.544 140.209 237.813 138.844 233.141 138.844V139.844ZM243.437 143.744L242.715 144.437C244.977 146.792 246.181 150.252 246.181 154.976H247.181H248.181C248.181 149.924 246.889 145.896 244.158 143.051L243.437 143.744ZM247.181 154.976H246.181V204.272H247.181H248.181V154.976H247.181ZM247.181 204.272H246.181C246.181 209.006 245.023 212.472 242.857 214.827L243.593 215.504L244.329 216.181C246.946 213.336 248.181 209.314 248.181 204.272H247.181ZM243.593 215.504L242.857 214.827C240.706 217.165 237.524 218.404 233.141 218.404V219.404V220.404C237.909 220.404 241.695 219.043 244.329 216.181L243.593 215.504ZM233.141 128.768V127.768C228.4 127.768 224.864 126.659 222.399 124.573L221.753 125.336L221.107 126.099C224.05 128.589 228.106 129.768 233.141 129.768V128.768ZM221.753 125.336L222.413 124.585C220.083 122.535 218.853 119.513 218.853 115.352H217.853H216.853C216.853 119.927 218.222 123.561 221.092 126.087L221.753 125.336ZM217.853 115.352H218.853C218.853 111.303 220.078 108.33 222.413 106.275L221.753 105.524L221.092 104.773C218.228 107.294 216.853 110.873 216.853 115.352H217.853ZM221.753 105.524L222.399 106.287C224.864 104.201 228.4 103.092 233.141 103.092V102.092V101.092C228.106 101.092 224.05 102.271 221.107 104.761L221.753 105.524ZM233.141 102.092V103.092C238.106 103.092 241.676 104.209 244.024 106.275L244.685 105.524L245.345 104.773C242.493 102.263 238.368 101.092 233.141 101.092V102.092ZM244.685 105.524L244.024 106.275C246.36 108.33 247.585 111.303 247.585 115.352H248.585H249.585C249.585 110.873 248.21 107.294 245.345 104.773L244.685 105.524ZM248.585 115.352H247.585C247.585 119.513 246.354 122.535 244.024 124.585L244.685 125.336L245.345 126.087C248.215 123.561 249.585 119.927 249.585 115.352H248.585ZM244.685 125.336L244.024 124.585C241.676 126.651 238.106 127.768 233.141 127.768V128.768V129.768C238.368 129.768 242.493 128.597 245.345 126.087L244.685 125.336ZM266.72 143.432L266.013 142.725L266.005 142.733L265.997 142.741L266.72 143.432ZM287 143.432L286.277 144.123L286.285 144.131L286.293 144.139L287 143.432ZM290.588 162.776L289.612 162.995L291.588 162.776H290.588ZM288.872 155.132L287.917 154.835L287.838 155.09L287.896 155.351L288.872 155.132ZM297.92 143.9L298.443 144.752L298.448 144.749L297.92 143.9ZM331.304 144.368L330.761 145.208L330.769 145.213L331.304 144.368ZM343.16 158.096L342.256 158.524V158.524L343.16 158.096ZM343.16 200.996L344.066 201.418V201.418L343.16 200.996ZM331.304 214.88L330.769 214.035L330.761 214.04L331.304 214.88ZM298.388 215.66L298.897 214.799L298.388 215.66ZM289.184 205.052V204.052H287.765L288.242 205.388L289.184 205.052ZM291.056 205.052H292.056V204.052H291.056V205.052ZM287.312 243.896L286.62 243.174L286.612 243.181L286.605 243.189L287.312 243.896ZM312.428 197.252L312.973 198.09L312.982 198.084L312.428 197.252ZM317.576 190.856L318.49 191.262L318.495 191.25L317.576 190.856ZM315.392 164.648L314.636 165.303L314.642 165.309L314.647 165.316L315.392 164.648ZM297.608 161.996L297.081 161.146V161.146L297.608 161.996ZM292.46 168.392L293.374 168.798L293.379 168.786L292.46 168.392ZM294.644 194.6L295.399 193.945V193.945L294.644 194.6ZM277.016 247.484V246.484C272.832 246.484 269.737 245.343 267.583 243.189L266.876 243.896L266.169 244.603C268.798 247.233 272.463 248.484 277.016 248.484V247.484ZM266.876 243.896L267.583 243.189C265.437 241.043 264.288 237.851 264.288 233.444H263.288H262.288C262.288 238.189 263.531 241.965 266.169 244.603L266.876 243.896ZM263.288 233.444H264.288V153.728H263.288H262.288V233.444H263.288ZM263.288 153.728H264.288C264.288 149.421 265.387 146.272 267.442 144.123L266.72 143.432L265.997 142.741C263.476 145.376 262.288 149.091 262.288 153.728H263.288ZM266.72 143.432L267.427 144.139C269.581 141.985 272.676 140.844 276.86 140.844V139.844V138.844C272.307 138.844 268.642 140.095 266.013 142.725L266.72 143.432ZM276.86 139.844V140.844C281.158 140.844 284.237 141.99 286.277 144.123L287 143.432L287.722 142.741C285.187 140.09 281.505 138.844 276.86 138.844V139.844ZM287 143.432L286.293 144.139C288.443 146.289 289.588 149.433 289.588 153.728H290.588H291.588C291.588 149.079 290.341 145.359 287.707 142.725L287 143.432ZM290.588 153.728H289.588V162.776H290.588H291.588V153.728H290.588ZM290.588 162.776L291.564 162.557L289.848 154.913L288.872 155.132L287.896 155.351L289.612 162.995L290.588 162.776ZM288.872 155.132L289.827 155.429C291.204 151.003 294.052 147.447 298.443 144.752L297.92 143.9L297.397 143.048C292.636 145.969 289.452 149.901 287.917 154.835L288.872 155.132ZM297.92 143.9L298.448 144.749C302.958 141.943 308.076 140.532 313.832 140.532V139.532V138.532C307.732 138.532 302.242 140.033 297.391 143.051L297.92 143.9ZM313.832 139.532V140.532C320.319 140.532 325.95 142.101 330.761 145.208L331.304 144.368L331.846 143.528C326.674 140.187 320.656 138.532 313.832 138.532V139.532ZM331.304 144.368L330.769 145.213C335.691 148.327 339.522 152.752 342.256 158.524L343.16 158.096L344.064 157.668C341.182 151.584 337.108 146.857 331.838 143.523L331.304 144.368ZM343.16 158.096L342.256 158.524C344.985 164.286 346.372 171.307 346.372 179.624H347.372H348.372C348.372 171.093 346.95 163.762 344.064 157.668L343.16 158.096ZM347.372 179.624H346.372C346.372 187.728 344.987 194.701 342.253 200.574L343.16 200.996L344.066 201.418C346.949 195.227 348.372 187.952 348.372 179.624H347.372ZM343.16 200.996L342.253 200.574C339.517 206.451 335.687 210.924 330.769 214.035L331.304 214.88L331.838 215.725C337.113 212.388 341.186 207.605 344.066 201.418L343.16 200.996ZM331.304 214.88L330.761 214.04C325.95 217.147 320.319 218.716 313.832 218.716V219.716V220.716C320.656 220.716 326.674 219.061 331.846 215.72L331.304 214.88ZM313.832 219.716V218.716C308.277 218.716 303.307 217.405 298.897 214.799L298.388 215.66L297.879 216.521C302.621 219.323 307.947 220.716 313.832 220.716V219.716ZM298.388 215.66L298.897 214.799C294.491 212.196 291.596 208.832 290.126 204.716L289.184 205.052L288.242 205.388C289.892 210.008 293.133 213.716 297.879 216.521L298.388 215.66ZM289.184 205.052V206.052H291.056V205.052V204.052H289.184V205.052ZM291.056 205.052H290.056V233.444H291.056H292.056V205.052H291.056ZM291.056 233.444H290.056C290.056 237.839 288.861 241.026 286.62 243.174L287.312 243.896L288.004 244.618C290.754 241.982 292.056 238.201 292.056 233.444H291.056ZM287.312 243.896L286.605 243.189C284.455 245.339 281.311 246.484 277.016 246.484V247.484V248.484C281.665 248.484 285.385 247.237 288.019 244.603L287.312 243.896ZM305.096 199.28V200.28C308.071 200.28 310.71 199.561 312.973 198.09L312.428 197.252L311.883 196.414C309.986 197.647 307.737 198.28 305.096 198.28V199.28ZM312.428 197.252L312.982 198.084C315.349 196.506 317.178 194.213 318.49 191.262L317.576 190.856L316.662 190.45C315.478 193.115 313.874 195.086 311.873 196.42L312.428 197.252ZM317.576 190.856L318.495 191.25C319.814 188.171 320.448 184.28 320.448 179.624H319.448H318.448C318.448 184.12 317.833 187.717 316.657 190.462L317.576 190.856ZM319.448 179.624H320.448C320.448 172.573 319.088 167.273 316.136 163.98L315.392 164.648L314.647 165.316C317.103 168.055 318.448 172.739 318.448 179.624H319.448ZM315.392 164.648L316.147 163.993C313.252 160.652 309.543 158.968 305.096 158.968V159.968V160.968C308.968 160.968 312.124 162.404 314.636 165.303L315.392 164.648ZM305.096 159.968V158.968C302.12 158.968 299.438 159.687 297.081 161.146L297.608 161.996L298.134 162.846C300.145 161.601 302.456 160.968 305.096 160.968V159.968ZM297.608 161.996L297.081 161.146C294.686 162.629 292.85 164.942 291.541 167.998L292.46 168.392L293.379 168.786C294.565 166.018 296.162 164.067 298.134 162.846L297.608 161.996ZM292.46 168.392L291.546 167.986C290.219 170.971 289.588 174.87 289.588 179.624H290.588H291.588C291.588 175.018 292.204 171.429 293.374 168.798L292.46 168.392ZM290.588 179.624H289.588C289.588 186.581 290.951 191.866 293.888 195.255L294.644 194.6L295.399 193.945C292.928 191.094 291.588 186.395 291.588 179.624H290.588ZM294.644 194.6L293.888 195.255C296.789 198.602 300.553 200.28 305.096 200.28V199.28V198.28C301.111 198.28 297.907 196.838 295.399 193.945L294.644 194.6ZM377.498 214.88L377.056 215.777L377.065 215.781L377.073 215.785L377.498 214.88ZM361.898 200.84L361.042 201.357V201.357L361.898 200.84ZM361.586 158.72L360.723 158.214L360.721 158.219L361.586 158.72ZM375.938 144.68L376.421 145.556L376.426 145.553L375.938 144.68ZM412.442 142.34L412.071 143.268L412.08 143.272L412.089 143.275L412.442 142.34ZM424.454 150.296L423.726 150.981L423.731 150.987L423.736 150.992L424.454 150.296ZM431.942 162.776L430.995 163.098L430.998 163.107L431.002 163.116L431.942 162.776ZM432.878 183.836L433.511 184.61L433.531 184.593L433.551 184.576L432.878 183.836ZM379.682 185.24H378.682V186.24H379.682V185.24ZM379.682 172.136V171.136H378.682V172.136H379.682ZM414.314 172.136L414.945 172.912L417.131 171.136H414.314V172.136ZM411.818 174.164H410.818V176.265L412.449 174.94L411.818 174.164ZM405.578 159.344L405.044 160.189L405.054 160.196L405.064 160.201L405.578 159.344ZM389.666 159.812L390.203 160.656L390.212 160.65L389.666 159.812ZM384.362 166.364L383.443 165.97V165.97L384.362 166.364ZM387.326 194.6L386.619 195.307L386.63 195.319L386.642 195.33L387.326 194.6ZM410.414 198.5L410.59 199.484L410.603 199.482L410.617 199.479L410.414 198.5ZM418.994 196.004L419.353 196.937V196.937L418.994 196.004ZM426.014 195.536L425.668 196.474L425.69 196.482L425.713 196.49L426.014 195.536ZM430.538 198.968L429.69 199.498L429.71 199.529L429.732 199.559L430.538 198.968ZM432.41 204.428L431.411 204.478L431.411 204.481L432.41 204.428ZM431.006 210.356L431.88 210.842L431.886 210.832L431.891 210.822L431.006 210.356ZM425.858 214.724L425.459 213.807L425.451 213.811L425.442 213.815L425.858 214.724ZM414.158 218.468L413.962 217.487L413.957 217.488L414.158 218.468ZM401.834 219.716V218.716C392.587 218.716 384.627 217.124 377.923 213.975L377.498 214.88L377.073 215.785C384.097 219.084 392.361 220.716 401.834 220.716V219.716ZM377.498 214.88L377.94 213.983C371.339 210.733 366.288 206.18 362.754 200.323L361.898 200.84L361.042 201.357C364.788 207.564 370.137 212.371 377.056 215.777L377.498 214.88ZM361.898 200.84L362.754 200.323C359.223 194.472 357.438 187.533 357.438 179.468H356.438H355.438C355.438 187.835 357.293 195.144 361.042 201.357L361.898 200.84ZM356.438 179.468H357.438C357.438 171.713 359.12 164.975 362.451 159.221L361.586 158.72L360.721 158.219C357.188 164.321 355.438 171.415 355.438 179.468H356.438ZM361.586 158.72L362.449 159.226C365.895 153.346 370.549 148.795 376.421 145.556L375.938 144.68L375.455 143.804C369.263 147.221 364.349 152.03 360.723 158.214L361.586 158.72ZM375.938 144.68L376.426 145.553C382.397 142.213 389.194 140.532 396.842 140.532V139.532V138.532C388.89 138.532 381.751 140.283 375.45 143.807L375.938 144.68ZM396.842 139.532V140.532C402.452 140.532 407.524 141.45 412.071 143.268L412.442 142.34L412.813 141.412C408 139.486 402.672 138.532 396.842 138.532V139.532ZM412.442 142.34L412.089 143.275C416.631 144.991 420.505 147.56 423.726 150.981L424.454 150.296L425.182 149.611C421.747 145.96 417.613 143.225 412.795 141.405L412.442 142.34ZM424.454 150.296L423.736 150.992C426.953 154.31 429.375 158.339 430.995 163.098L431.942 162.776L432.889 162.454C431.181 157.437 428.611 153.146 425.172 149.6L424.454 150.296ZM431.942 162.776L431.002 163.116C432.724 167.879 433.594 173.222 433.594 179.156H434.594H435.594C435.594 173.026 434.696 167.449 432.882 162.436L431.942 162.776ZM434.594 179.156H433.594C433.594 181.056 433.076 182.305 432.205 183.096L432.878 183.836L433.551 184.576C434.968 183.287 435.594 181.416 435.594 179.156H434.594ZM432.878 183.836L432.245 183.062C431.367 183.781 429.829 184.24 427.418 184.24V185.24V186.24C430 186.24 432.102 185.763 433.511 184.61L432.878 183.836ZM427.418 185.24V184.24H379.682V185.24V186.24H427.418V185.24ZM379.682 185.24H380.682V172.136H379.682H378.682V185.24H379.682ZM379.682 172.136V173.136H414.314V172.136V171.136H379.682V172.136ZM414.314 172.136L413.683 171.36L411.187 173.388L411.818 174.164L412.449 174.94L414.945 172.912L414.314 172.136ZM411.818 174.164H412.818C412.818 170.238 412.289 166.968 411.175 164.405L410.258 164.804L409.341 165.203C410.307 167.424 410.818 170.394 410.818 174.164H411.818ZM410.258 164.804L411.175 164.405C410.059 161.837 408.365 159.85 406.093 158.487L405.578 159.344L405.064 160.201C406.951 161.334 408.378 162.987 409.341 165.203L410.258 164.804ZM405.578 159.344L406.112 158.499C403.936 157.124 401.241 156.472 398.09 156.472V157.472V158.472C400.971 158.472 403.268 159.068 405.044 160.189L405.578 159.344ZM398.09 157.472V156.472C394.698 156.472 391.695 157.295 389.12 158.974L389.666 159.812L390.212 160.65C392.422 159.209 395.034 158.472 398.09 158.472V157.472ZM389.666 159.812L389.129 158.968C386.644 160.55 384.757 162.905 383.443 165.97L384.362 166.364L385.281 166.758C386.464 163.999 388.112 161.986 390.203 160.656L389.666 159.812ZM384.362 166.364L383.443 165.97C382.125 169.044 381.49 172.829 381.49 177.284H382.49H383.49C383.49 173.003 384.103 169.508 385.281 166.758L384.362 166.364ZM382.49 177.284H381.49V178.688H382.49H383.49V177.284H382.49ZM382.49 178.688H381.49C381.49 186.18 383.12 191.808 386.619 195.307L387.326 194.6L388.033 193.893C385.084 190.944 383.49 185.964 383.49 178.688H382.49ZM387.326 194.6L386.642 195.33C390.23 198.693 395.621 200.28 402.614 200.28V199.28V198.28C395.879 198.28 391.078 196.747 388.01 193.87L387.326 194.6ZM402.614 199.28V200.28C404.975 200.28 407.636 200.012 410.59 199.484L410.414 198.5L410.238 197.516C407.368 198.028 404.829 198.28 402.614 198.28V199.28ZM410.414 198.5L410.617 199.479C413.683 198.845 416.595 197.998 419.353 196.937L418.994 196.004L418.635 195.071C415.985 196.09 413.177 196.907 410.211 197.521L410.414 198.5ZM418.994 196.004L419.353 196.937C421.916 195.952 423.993 195.857 425.668 196.474L426.014 195.536L426.36 194.598C424.083 193.759 421.48 193.976 418.635 195.071L418.994 196.004ZM426.014 195.536L425.713 196.49C427.476 197.046 428.784 198.048 429.69 199.498L430.538 198.968L431.386 198.438C430.213 196.56 428.504 195.274 426.315 194.582L426.014 195.536ZM430.538 198.968L429.732 199.559C430.751 200.949 431.316 202.578 431.411 204.478L432.41 204.428L433.409 204.378C433.296 202.118 432.613 200.107 431.344 198.377L430.538 198.968ZM432.41 204.428L431.411 204.481C431.505 206.254 431.088 208.053 430.121 209.89L431.006 210.356L431.891 210.822C433.004 208.707 433.523 206.554 433.409 204.375L432.41 204.428ZM431.006 210.356L430.132 209.87C429.22 211.511 427.695 212.835 425.459 213.807L425.858 214.724L426.257 215.641C428.805 214.533 430.712 212.945 431.88 210.842L431.006 210.356ZM425.858 214.724L425.442 213.815C421.877 215.445 418.051 216.67 413.962 217.487L414.158 218.468L414.354 219.449C418.585 218.602 422.56 217.331 426.274 215.633L425.858 214.724ZM414.158 218.468L413.957 217.488C409.968 218.307 405.927 218.716 401.834 218.716V219.716V220.716C406.061 220.716 410.237 220.293 414.359 219.448L414.158 218.468Z" fill="white" mask="url(#path-1-outside-1_3_203)"/>
<mask id="path-3-outside-2_3_203" maskUnits="userSpaceOnUse" x="589" y="78" width="98" height="145" fill="black">
<rect fill="white" x="589" y="78" width="98" height="145"/>
<path d="M685.4 79.6V175.2C685.4 190 681.2 201.4 672.8 209.4C664.533 217.4 653.333 221.4 639.2 221.4C624.4 221.4 612.533 217.2 603.6 208.8C594.667 200.4 590.2 188.467 590.2 173H624.2C624.2 178.867 625.4 183.333 627.8 186.4C630.2 189.333 633.667 190.8 638.2 190.8C642.333 190.8 645.533 189.467 647.8 186.8C650.067 184.133 651.2 180.267 651.2 175.2V79.6H685.4Z"/>
</mask>
<path d="M685.4 79.6V175.2C685.4 190 681.2 201.4 672.8 209.4C664.533 217.4 653.333 221.4 639.2 221.4C624.4 221.4 612.533 217.2 603.6 208.8C594.667 200.4 590.2 188.467 590.2 173H624.2C624.2 178.867 625.4 183.333 627.8 186.4C630.2 189.333 633.667 190.8 638.2 190.8C642.333 190.8 645.533 189.467 647.8 186.8C650.067 184.133 651.2 180.267 651.2 175.2V79.6H685.4Z" fill="#ED8E36"/>
<path d="M685.4 79.6H686.4V78.6H685.4V79.6ZM672.8 209.4L672.11 208.676L672.105 208.681L672.8 209.4ZM603.6 208.8L602.915 209.529V209.529L603.6 208.8ZM590.2 173V172H589.2V173H590.2ZM624.2 173H625.2V172H624.2V173ZM627.8 186.4L627.012 187.016L627.019 187.025L627.026 187.033L627.8 186.4ZM647.8 186.8L647.038 186.152V186.152L647.8 186.8ZM651.2 79.6V78.6H650.2V79.6H651.2ZM685.4 79.6H684.4V175.2H685.4H686.4V79.6H685.4ZM685.4 175.2H684.4C684.4 189.806 680.261 200.913 672.11 208.676L672.8 209.4L673.49 210.124C682.139 201.887 686.4 190.194 686.4 175.2H685.4ZM672.8 209.4L672.105 208.681C664.065 216.462 653.136 220.4 639.2 220.4V221.4V222.4C653.53 222.4 665.002 218.338 673.495 210.119L672.8 209.4ZM639.2 221.4V220.4C624.599 220.4 612.996 216.262 604.285 208.071L603.6 208.8L602.915 209.529C612.071 218.138 624.201 222.4 639.2 222.4V221.4ZM603.6 208.8L604.285 208.071C595.602 199.907 591.2 188.267 591.2 173H590.2H589.2C589.2 188.666 593.731 200.893 602.915 209.529L603.6 208.8ZM590.2 173V174H624.2V173V172H590.2V173ZM624.2 173H623.2C623.2 178.982 624.42 183.704 627.012 187.016L627.8 186.4L628.588 185.784C626.38 182.962 625.2 178.751 625.2 173H624.2ZM627.8 186.4L627.026 187.033C629.654 190.245 633.432 191.8 638.2 191.8V190.8V189.8C633.901 189.8 630.746 188.422 628.574 185.767L627.8 186.4ZM638.2 190.8V191.8C642.568 191.8 646.07 190.379 648.562 187.448L647.8 186.8L647.038 186.152C644.996 188.554 642.099 189.8 638.2 189.8V190.8ZM647.8 186.8L648.562 187.448C651.038 184.534 652.2 180.4 652.2 175.2H651.2H650.2C650.2 180.133 649.095 183.732 647.038 186.152L647.8 186.8ZM651.2 175.2H652.2V79.6H651.2H650.2V175.2H651.2ZM651.2 79.6V80.6H685.4V79.6V78.6H651.2V79.6Z" fill="white" mask="url(#path-3-outside-2_3_203)"/>
<path d="M467 62.3602C477.54 61.77 488.305 62.0829 498.391 62.0829C546.328 62.083 584.802 98.6496 584.802 146.843C584.802 170.923 576.12 189.654 561.41 202.357C546.709 215.053 526.034 221.688 502.108 221.688C490.358 221.688 478.38 221.461 467 220.398V62.3602Z" fill="url(#paint0_linear_3_203)"/>
<g filter="url(#filter0_n_3_203)">
<circle cx="506.695" cy="143.951" r="27.2602" fill="black"/>
<circle cx="506.695" cy="143.951" r="27.2602" stroke="white"/>
</g>
<circle cx="506.695" cy="143.951" r="9.08674" fill="#EB7834" stroke="white"/>
<path d="M549.401 128.419C549.401 126.011 552.094 124.585 554.086 125.937L577.344 141.735C579.096 142.926 579.096 145.508 577.344 146.698L554.086 162.496C552.094 163.849 549.401 162.421 549.401 160.014V149.689H539.737C536.976 149.689 534.738 147.451 534.737 144.689V143.124C534.738 140.363 536.976 138.124 539.737 138.124H549.401V128.419Z" fill="#FBD290"/>
<path d="M577.52 157.313C570.307 192.07 537.838 218.296 498.872 218.296C495.35 218.296 491.88 218.08 488.478 217.665V213.635C491.874 214.07 495.344 214.296 498.872 214.296C535.774 214.296 566.268 189.712 573.425 157.313H577.52ZM498.872 67.1265C538.158 67.1268 570.84 93.7864 577.693 128.969H573.609C566.805 96.147 536.1 71.1268 498.872 71.1265C495.344 71.1265 491.874 71.3509 488.478 71.7857V67.7574C491.88 67.3418 495.35 67.1265 498.872 67.1265Z" fill="url(#paint1_linear_3_203)"/>
<path d="M556.333 167.404C546.364 188.54 523.905 203.277 497.795 203.277L496.967 203.272C494.088 203.238 491.254 203.024 488.478 202.643V199.612C491.514 200.049 494.625 200.277 497.795 200.277C522.267 200.277 543.232 186.783 552.988 167.404H556.333ZM498.622 82.4921C524.836 82.8054 547.253 97.9732 556.847 119.48H553.536C544.034 99.5033 522.736 85.4875 497.795 85.4873C494.625 85.4873 491.514 85.7159 488.478 86.1523V83.1211C491.519 82.7029 494.631 82.4873 497.795 82.4873L498.622 82.4921Z" fill="url(#paint2_linear_3_203)"/>
<path d="M542.139 164.665C534.116 179.474 517.786 189.616 498.943 189.616L497.691 189.6C494.535 189.525 491.455 189.163 488.478 188.545V185.479C491.833 186.22 495.336 186.616 498.943 186.616C516.116 186.616 530.938 177.715 538.683 164.665H542.139ZM500.194 98.1833C515.929 98.5594 529.799 106.009 538.369 117.285H534.519C526.214 107.489 513.413 101.169 498.943 101.169C495.336 101.169 491.833 101.562 488.478 102.303V99.239C491.848 98.5396 495.35 98.1687 498.943 98.1687L500.194 98.1833Z" fill="url(#paint3_linear_3_203)"/>
<defs>
<filter id="filter0_n_3_203" x="478.935" y="116.191" width="55.5204" height="55.5204" filterUnits="userSpaceOnUse" color-interpolation-filters="sRGB">
<feFlood flood-opacity="0" result="BackgroundImageFix"/>
<feBlend mode="normal" in="SourceGraphic" in2="BackgroundImageFix" result="shape"/>
<feTurbulence type="fractalNoise" baseFrequency="2 2" stitchTiles="stitch" numOctaves="3" result="noise" seed="9897" />
<feColorMatrix in="noise" type="luminanceToAlpha" result="alphaNoise" />
<feComponentTransfer in="alphaNoise" result="coloredNoise1">
<feFuncA type="discrete" tableValues="0 0 0 0 0 0 0 0 0 0 0 0 0 0 0 0 0 0 0 0 0 0 0 0 0 1 0 0 0 0 0 0 0 0 0 0 0 0 0 0 0 0 0 0 0 0 0 0 0 0 0 0 0 0 0 0 0 0 0 0 0 0 0 0 0 0 0 0 0 0 0 0 0 0 0 0 0 0 0 0 0 0 0 0 0 0 0 0 0 0 0 0 0 0 0 0 0 0 0 0 "/>
</feComponentTransfer>
<feComposite operator="in" in2="shape" in="coloredNoise1" result="noise1Clipped" />
<feFlood flood-color="rgba(0, 0, 0, 0.25)" result="color1Flood" />
<feComposite operator="in" in2="noise1Clipped" in="color1Flood" result="color1" />
<feMerge result="effect1_noise_3_203">
<feMergeNode in="shape" />
<feMergeNode in="color1" />
</feMerge>
</filter>
<linearGradient id="paint0_linear_3_203" x1="434.255" y1="120.275" x2="572.821" y2="169.433" gradientUnits="userSpaceOnUse">
<stop offset="0.283654" stop-color="#EA5B31"/>
<stop offset="1" stop-color="#ED9136"/>
</linearGradient>
<linearGradient id="paint1_linear_3_203" x1="577.605" y1="149.583" x2="420.052" y2="148.134" gradientUnits="userSpaceOnUse">
<stop offset="0.508703" stop-color="#FFC37A"/>
<stop offset="1" stop-color="#FFC37A" stop-opacity="0.5"/>
</linearGradient>
<linearGradient id="paint2_linear_3_203" x1="560.705" y1="148.373" x2="434.815" y2="147.215" gradientUnits="userSpaceOnUse">
<stop offset="0.508703" stop-color="#FFC37A"/>
<stop offset="1" stop-color="#FFC37A" stop-opacity="0.5"/>
</linearGradient>
<linearGradient id="paint3_linear_3_203" x1="546.567" y1="148.049" x2="451.264" y2="147.173" gradientUnits="userSpaceOnUse">
<stop offset="0.508703" stop-color="#FFC37A"/>
<stop offset="1" stop-color="#FFC37A" stop-opacity="0.5"/>
</linearGradient>
</defs>
</svg>
